# xmcd CD database file
#
# Track frame offsets:
#	150
#	45061
#	77512
#	134628
#	157142
#	189732
#	218872
#	253073
#	281258
#
# Disc length: 4326 seconds
#
# Revision: 0
# Processed by: cddbd v1.5.2PL0 Copyright (c) Steve Scherf et al.
# Submitted via: CDex 1.70beta2
#
DISCID=7b10e409
DTITLE=Joe Sullivan Big Band - Northern Ontario Suite
DYEAR=2010
DGENRE=Jazz
TTITLE0=Plus ça change...
TTITLE1=Mambo #6
TTITLE2=Ionosphere
TTITLE3=May Run Boogaloo
TTITLE4=Tiger Lily
TTITLE5=Super City Shuffle
TTITLE6=Voices
TTITLE7=Abitibi Breeze
TTITLE8=Joe Sullivan Big Band - Later Joe
EXTD=YEAR: 2010
EXTT0=
EXTT1=
EXTT2=
EXTT3=
EXTT4=
EXTT5=
EXTT6=
EXTT7=
EXTT8=
PLAYORDER=
